<svg xmlns="http://www.w3.org/2000/svg" version="1.0" viewBox="0 0 120 120">
  <path d="M62.8 9.2c-7.7 11.2-9.1 13.8-8.4 14.6.4.3-2.2 1.9-5.6 3.5-17.9 8.5-25.7 23.6-30.3 58.2-1.9 14.7-3.7 20.3-8.2 26.1-4.8 6.4-4.2 7.8 3.2 8.2 33.4 1.7 71.5-28.5 80-63.5 1.2-5.2 2.2-7.4 3.6-7.8 1-.3 2.8-2.4 4.1-4.5s4.5-7.3 7.2-11.4c4.7-7.4 5.3-10.6 2.1-10.6-.8 0-2.1 1.1-2.7 2.5-1.6 3.5-2.3 3.3-16-4.8-6.8-4.1-14.5-8.6-17.1-10.1-4.9-2.8-4.9-2.8-2.7-4.8 2.5-2.3 2.2-4.2-.8-4.6-1.6-.3-3.4 1.6-8.4 9M85 21c20 11.9 18.8 10.4 14.4 16.9-4.5 6.6-4.1 6.7-23.7-4.7-17.4-10.1-16.9-9.4-12.3-16.6C67.8 9.8 65 9.2 85 21M74.5 37.8l15 8.8-.3 4.4c-.7 9.7-4.2 18.4-12.5 30.3-4.6 6.6-5 6.7-3.5 1.1 2.4-8.8-2.7-10.1-11.1-2.9-6.2 5.3-6.6 5.3-4.6-.5 3.1-8.8-2.4-11.6-10-5-1.1 1-3.2 2.5-4.7 3.5l-2.7 1.7 1.5-4.5c3.5-10.3.1-15.2-6.7-9.8l-4.1 3.4.4-4.4c.3-2.4 0-5.6-.5-7.1-2.9-8.7 15.1-26.2 28.3-27.7.3 0 7.3 3.9 15.5 8.7m-38 37.1c-3.7 11.3 3.7 12.2 15.3 1.8 2.2-2.1 2.2-2.1.2 3.7-3.4 9.9 3.2 13.3 10 5.1.7-.9 2.6-2.5 4.1-3.6l2.8-2-1 3.1c-.6 1.7-.9 4.4-.7 6.1 1.1 7.6-27.8 23.6-45.9 25.5-6.1.7-7.5.1-5.4-2.2 2.4-2.4 5.1-12.4 7.1-26 2.5-16.8 2.6-17.4 4.7-14.5 1.9 2.7 3.6 2.6 7-.3 3.6-3.1 3.8-2.8 1.8 3.3"/>
  <style>
    path { fill: #000; }
    @media (prefers-color-scheme: dark) {
      path { fill: #FFF; }
    }
  </style>
</svg>